<?xml version="1.0" standalone="no"?>
<!DOCTYPE svg PUBLIC "-//W3C//DTD SVG 20010904//EN"
 "http://www.w3.org/TR/2001/REC-SVG-20010904/DTD/svg10.dtd">
<svg version="1.0" xmlns="http://www.w3.org/2000/svg"
 width="120.000000pt" height="120.000000pt" viewBox="0 0 120.000000 120.000000"
 preserveAspectRatio="xMidYMid meet">

<g transform="translate(0.000000,120.000000) scale(0.100000,-0.100000)"
fill="#000000" stroke="none">
<path d="M452 1180 c-40 -11 -101 -34 -135 -52 -66 -35 -192 -147 -202 -179
-6 -18 52 -179 64 -179 4 0 28 52 55 115 l48 115 35 0 c29 0 34 -3 29 -17 -4
-10 -35 -82 -69 -161 l-61 -143 -40 3 -40 3 -35 83 c-20 45 -39 82 -43 82 -15
0 -50 -137 -55 -216 -7 -97 13 -200 56 -291 35 -73 47 -82 55 -42 8 42 64 95
114 108 101 28 202 -45 202 -144 l0 -35 -125 0 c-69 0 -125 -3 -125 -6 0 -17
24 -46 50 -59 37 -19 73 -19 112 1 29 15 32 15 52 -6 l21 -21 -25 -19 c-14
-10 -41 -23 -60 -28 l-35 -8 43 -23 c63 -33 185 -61 262 -61 120 0 257 46 359
120 l43 32 -4 81 c-4 68 -8 83 -28 99 -22 18 -64 23 -95 12 -32 -13 -45 -59
-45 -159 l0 -96 -37 3 -38 3 0 155 0 155 38 3 c27 2 37 -1 37 -12 0 -12 4 -12
32 2 44 21 119 20 153 -2 32 -21 55 -72 55 -122 0 -31 2 -35 15 -24 27 23 83
149 101 226 20 93 15 211 -14 299 l-20 60 -1 -77 -1 -78 -40 0 -40 0 0 109 c0
107 -1 110 -27 131 -35 27 -79 21 -110 -16 -21 -22 -23 -36 -23 -125 l0 -99
-40 0 -40 0 0 219 0 220 28 3 27 3 -33 18 c-54 29 -180 57 -256 56 -39 0 -104
-9 -144 -19z m271 -110 c42 -29 46 -43 16 -64 -19 -13 -24 -13 -44 0 -96 63
-222 13 -240 -95 -9 -56 25 -127 75 -153 45 -24 120 -19 159 10 l29 21 22 -24
c26 -28 21 -39 -31 -65 -93 -48 -209 -31 -273 40 -46 52 -58 81 -58 151 0 67
27 127 75 163 51 39 76 46 158 43 62 -2 82 -7 112 -27z m-33 -685 c0 -31 -3
-35 -34 -41 -60 -11 -71 -33 -74 -150 l-4 -104 -34 0 -34 0 0 160 0 160 35 0
c25 0 35 -4 35 -15 0 -13 4 -14 22 -4 21 11 64 26 81 28 4 1 7 -15 7 -34z"/>
<path d="M910 1041 l0 -70 35 15 c19 7 49 14 67 14 l32 0 -37 38 c-20 20 -50
45 -67 55 l-30 18 0 -70z"/>
<path d="M233 346 c-27 -12 -53 -42 -53 -60 0 -3 40 -6 90 -6 98 0 110 8 68
48 -31 28 -67 34 -105 18z"/>
</g>
</svg>
